<?xml version="1.0" encoding="utf-8"?>
<svg viewBox="0 0 500 500" xmlns="http://www.w3.org/2000/svg">
  <rect x="138.62" y="92.11" width="225.207" height="104.036" style="fill: rgb(216, 216, 216);" transform="matrix(0.997564, -0.069757, 0.069757, 0.997564, -14.337695, 17.875589)"/>
  <rect x="237.148" y="190.638" width="21.419" height="44.674" style="fill: rgb(216, 216, 216);"/>
  <rect x="113.529" y="227.968" width="273.553" height="203.788" style="fill: rgb(216, 216, 216);"/>
  <rect x="74" y="250" width="55.69" height="24.479" style="fill: rgb(216, 216, 216);"/>
  <rect x="73.751" y="161.263" width="24.479" height="98.528" style="fill: rgb(216, 216, 216);"/>
  <rect x="370" y="250" width="54.5" height="24.479" style="fill: rgb(216, 216, 216);"/>
  <rect x="400" y="258.873" width="24.479" height="98.528" style="fill: rgb(216, 216, 216);"/>
  <path d="M 115.227 145.589 C 115.227 161.605 102.243 174.589 86.227 174.589 C 70.211 174.589 57.227 161.605 57.227 145.589 C 57.227 135.55 62.328 126.703 70.079 121.497 L 70.079 152.083 L 101.902 152.083 L 101.902 121.186 C 109.918 126.346 115.227 135.348 115.227 145.589 Z" style="fill: rgb(216, 216, 216);"/>
  <path d="M 446.07 377.141 C 446.07 361.125 433.086 348.141 417.07 348.141 C 401.054 348.141 388.069 361.125 388.069 377.141 C 388.069 387.18 393.171 396.027 400.922 401.233 L 400.922 370.647 L 432.745 370.647 L 432.745 401.544 C 440.761 396.384 446.07 387.383 446.07 377.141 Z" style="fill: rgb(216, 216, 216);" transform="matrix(0.984808, -0.173649, 0.173649, 0.984808, -58.754739, 78.118448)"/>
  <rect x="51.468" y="34.446" width="4.766" height="30.291" style="fill: rgb(216, 216, 216);" transform="matrix(0.997563, -0.069756, 0.069757, 0.997564, 185.015866, 37.626805)"/>
  <ellipse cx="240.208" cy="62.735" rx="7.344" ry="6.732" style="fill: rgb(216, 216, 216);"/>
</svg>